<svg width="33" height="29" viewBox="0 0 33 29" fill="none" xmlns="http://www.w3.org/2000/svg">
<path d="M27.6318 10.875C29.5911 10.875 33 12.5176 33 14.5C33 16.5391 29.5911 18.125 27.6318 18.125H20.9516L15.1938 28.0881C14.8672 28.6545 14.2599 29 13.601 29H10.3813C9.77396 29 9.33281 28.4223 9.49896 27.8445L12.3063 18.125H6.41667L3.94167 21.3875C3.76979 21.6141 3.49479 21.75 3.20833 21.75H0.802083C0.355208 21.75 0 21.3932 0 20.957C0 20.8834 0.0114583 20.8098 0.0286458 20.7361L1.83333 14.5L0.0286458 8.26387C0.00572917 8.19023 0 8.1166 0 8.04297C0 7.60117 0.360938 7.25 0.802083 7.25H3.20833C3.49479 7.25 3.76979 7.38594 3.94167 7.6125L6.41667 10.875H12.312L9.50469 1.15547C9.33281 0.577734 9.77396 0 10.3813 0H13.601C14.2599 0 14.8672 0.351172 15.1938 0.911914L20.9516 10.875H27.6318Z" fill="#2B4452"/>
</svg>
