<svg width="19" height="15" viewBox="0 0 19 15" fill="none" xmlns="http://www.w3.org/2000/svg">
<g clip-path="url(#clip0_6_142)">
<path d="M11.1621 3.36622L5.45215 1.22461C4.96289 1.04297 4.4209 1.06934 3.95508 1.30372L2.61035 1.97461C2.28516 2.13868 2.26172 2.59278 2.56641 2.78907L6.87012 5.55762L3.98438 7.03125L2.2793 6.27247C2.02441 6.15821 1.72852 6.16407 1.47949 6.29004L0.536133 6.76172C0.263672 6.89942 0.19043 7.25391 0.389648 7.48536L2.53125 9.98438C2.70996 10.1924 2.9707 10.3125 3.24316 10.3125H7.27734C7.42383 10.3125 7.56738 10.2773 7.69629 10.2129L15.6914 6.2168C17.0537 5.53418 18.1084 4.36231 18.6445 2.93555C18.9229 2.19727 18.375 1.40625 17.584 1.40625H15.9023C15.3105 1.40625 14.7246 1.54688 14.1973 1.81641L11.1621 3.36622ZM0 14.0625C0 14.5811 0.418945 15 0.9375 15H17.8125C18.3311 15 18.75 14.5811 18.75 14.0625C18.75 13.544 18.3311 13.125 17.8125 13.125H0.9375C0.418945 13.125 0 13.544 0 14.0625Z" fill="#2B4452"/>
</g>
<defs>
<clipPath id="clip0_6_142">
<rect width="18.75" height="15" fill="white"/>
</clipPath>
</defs>
</svg>
