<svg width="25" height="24" viewBox="0 0 25 24" fill="none" xmlns="http://www.w3.org/2000/svg">
<path d="M23.8733 4.17736C24.8173 3.24962 24.8173 1.74298 23.8733 0.815247C22.9293 -0.112488 21.3962 -0.112488 20.4522 0.815247L12.4999 8.6379L4.53999 0.822668C3.59598 -0.105066 2.06291 -0.105066 1.1189 0.822668C0.174886 1.7504 0.174886 3.25704 1.1189 4.18478L9.07879 12L1.12645 19.8227C0.182438 20.7504 0.182438 22.257 1.12645 23.1848C2.07046 24.1125 3.60353 24.1125 4.54754 23.1848L12.4999 15.3621L20.4598 23.1774C21.4038 24.1051 22.9369 24.1051 23.8809 23.1774C24.8249 22.2496 24.8249 20.743 23.8809 19.8152L15.921 12L23.8733 4.17736Z" fill="#2B4452"/>
</svg>
