<svg width="19" height="15" viewBox="0 0 19 15" fill="none" xmlns="http://www.w3.org/2000/svg">
<path d="M0.00878906 4.88965L0 1.99219C0 1.69043 0.27832 1.46777 0.571289 1.53223L1.61426 1.76367C1.9248 1.83105 2.17676 2.05371 2.28809 2.34961L2.8125 3.75L6.54199 4.85156L5.32617 0.597656C5.24121 0.298828 5.4668 0 5.77734 0H6.95215C7.29199 0 7.60254 0.181641 7.76953 0.477539L10.9629 6.15527L14.1035 7.08398C14.5693 7.22168 15.0059 7.4502 15.3838 7.75195L16.3916 8.56055C17.0947 9.12305 16.9219 10.2393 16.0781 10.5586C14.8711 11.0156 13.5527 11.0889 12.3047 10.7637L3.56543 8.49023C3.24023 8.40527 2.94434 8.23535 2.70703 7.99512L0.27832 5.54883C0.105469 5.37305 0.00585938 5.13574 0.00585938 4.88965H0.00878906ZM0.9375 13.125H17.8125C18.3311 13.125 18.75 13.5439 18.75 14.0625C18.75 14.5811 18.3311 15 17.8125 15H0.9375C0.418945 15 0 14.5811 0 14.0625C0 13.5439 0.418945 13.125 0.9375 13.125ZM3.75 10.7812C3.75 10.5326 3.84877 10.2942 4.02459 10.1183C4.2004 9.94252 4.43886 9.84375 4.6875 9.84375C4.93614 9.84375 5.1746 9.94252 5.35041 10.1183C5.52623 10.2942 5.625 10.5326 5.625 10.7812C5.625 11.0299 5.52623 11.2683 5.35041 11.4442C5.1746 11.62 4.93614 11.7188 4.6875 11.7188C4.43886 11.7188 4.2004 11.62 4.02459 11.4442C3.84877 11.2683 3.75 11.0299 3.75 10.7812ZM7.5 10.3125C7.74864 10.3125 7.9871 10.4113 8.16291 10.5871C8.33873 10.7629 8.4375 11.0014 8.4375 11.25C8.4375 11.4986 8.33873 11.7371 8.16291 11.9129C7.9871 12.0887 7.74864 12.1875 7.5 12.1875C7.25136 12.1875 7.0129 12.0887 6.83709 11.9129C6.66127 11.7371 6.5625 11.4986 6.5625 11.25C6.5625 11.0014 6.66127 10.7629 6.83709 10.5871C7.0129 10.4113 7.25136 10.3125 7.5 10.3125Z" fill="#2B4452"/>
</svg>
